<svg width="314" height="90" viewBox="0 0 314 90" fill="none" xmlns="http://www.w3.org/2000/svg">
<mask id="mask0_683_443" style="mask-type:luminance" maskUnits="userSpaceOnUse" x="19" y="20" width="276" height="50">
<path d="M294.758 20H19.2402V70H294.758V20Z" fill="white"/>
</mask>
<g mask="url(#mask0_683_443)">
<path d="M127.641 69.8399L106.158 48.0296C101.85 43.6676 96.2888 41.0503 90.2364 40.5051L80.3128 30.4179C74.2605 24.202 65.9725 20.7668 57.3575 20.7668H35.4928C37.6738 24.202 41.436 26.2194 45.471 26.2194H57.412C64.6094 26.2194 71.4797 29.1093 76.5505 34.2892L82.6029 40.4506H48.5244C50.7054 43.8857 54.4677 45.9031 58.5025 45.9031H88.0554C93.4535 45.9031 98.5788 48.0296 102.396 51.9554L114.719 64.4419H65.3729C58.5025 64.4419 52.1776 60.9522 48.4153 55.1725L29.604 26.2194C27.423 22.8388 23.7152 20.8214 19.7349 20.8214H19.2441L43.3989 58.1168C48.1427 65.4779 56.158 69.8944 64.8275 69.8944H127.641V69.8399Z" fill="#090909"/>
<path d="M196.933 22.4565C196.933 22.5656 196.933 32.5983 196.933 32.5983C196.933 37.0694 200.314 37.0694 201.568 37.0694H224.85V34.8884C224.85 34.8884 222.832 34.8884 220.869 34.6157C219.016 34.2886 217.544 32.8709 217.544 30.9625C217.544 29.0541 219.179 27.3093 221.197 27.3093C223.214 27.3093 222.397 27.4729 222.887 27.7455L223.65 26.764C223.65 26.7095 223.542 26.655 223.486 26.6004C222.233 25.5645 220.487 25.1828 219.179 25.1828C214.708 25.1828 213.018 29.3267 213.018 31.017C213.018 32.7073 213.4 33.9068 214.108 34.8338H203.531C202.167 34.8338 201.513 34.0705 201.513 32.5437V20.2209H195.297V21.4205C195.297 21.4205 196.661 21.4205 196.878 22.4565H196.933Z" fill="#090909"/>
<path d="M218.858 23.7099C219.894 23.7099 220.711 22.8921 220.711 21.8561C220.711 20.8201 219.894 20.0022 218.858 20.0022C217.822 20.0022 217.004 20.8201 217.004 21.8561C217.004 22.8921 217.822 23.7099 218.858 23.7099Z" fill="#090909"/>
<path d="M232.216 31.9968V33.2508C232.216 34.505 232.216 36.0862 232.216 36.1953C232.216 39.1942 232.38 43.2291 242.03 43.2291C251.681 43.2291 251.027 39.3577 251.027 36.1953C251.027 36.1953 251.845 37.1221 253.808 37.1221H276.927C278.181 37.1221 281.561 36.7405 281.561 32.7056V24.2542H275.291V25.4537C275.291 25.4537 276.872 25.4537 276.872 26.7623V32.7056C276.872 34.1778 276.328 34.8866 274.964 34.8866H253.753C252.336 34.8866 250.973 33.7417 250.973 32.3239V24.963H244.703V26.1626C244.703 26.1626 245.139 26.1626 245.575 26.3807C245.956 26.5442 246.284 26.8714 246.284 27.4712V32.542C246.284 37.1767 246.447 41.5388 241.868 41.5388C237.287 41.5388 236.741 37.613 236.741 33.3054V32.6511V29.5977H230.471V30.7972C230.471 30.7972 232.052 30.7972 232.052 32.1058L232.216 31.9968Z" fill="#090909"/>
<path d="M252.445 68.259C251.954 68.1499 251.191 67.8772 251.191 67.0048V54.573C251.191 54.3004 251.246 54.0823 251.355 53.9187H254.354C255.062 54.0278 255.39 55.609 255.772 56.0998L256.699 55.6635L255.88 51.7922C255.772 51.7922 254.463 52.1194 254.135 52.1194H243.449C243.066 52.1194 241.158 51.9013 241.049 51.8468L240.34 55.6635L241.267 56.0998C241.649 55.609 241.976 53.9732 242.685 53.9187H246.229C246.338 54.0823 246.393 54.3004 246.393 54.573V67.0048C246.393 67.8772 245.684 68.1499 245.193 68.259V69.5675H252.282V68.3135L252.445 68.259Z" fill="#090909"/>
<path d="M269.073 68.259C268.583 68.1499 267.819 67.8772 267.819 67.0048V54.573C267.819 54.3004 267.875 54.0823 267.983 53.9187H271.527C272.236 54.0278 272.562 55.609 272.944 56.0998L273.871 55.6635L273.054 51.7922C272.944 51.7922 271.091 52.1194 270.763 52.1194H260.077C259.694 52.1194 258.332 51.9013 258.223 51.8468L257.514 55.6635L258.441 56.0998C258.822 55.609 259.15 53.9732 259.858 53.9187H262.857C262.966 54.0823 263.021 54.3004 263.021 54.573V67.0048C263.021 67.8772 262.312 68.1499 261.821 68.259V69.5675H268.91V68.3135L269.073 68.259Z" fill="#090909"/>
<path d="M241.374 31.5615C242.41 31.5615 243.229 30.7436 243.229 29.7076C243.229 28.6716 242.41 27.8538 241.374 27.8538C240.338 27.8538 239.521 28.6716 239.521 29.7076C239.521 30.7436 240.338 31.5615 241.374 31.5615Z" fill="#090909"/>
<path d="M282.759 68.2041C282.268 68.095 281.614 67.8224 281.614 66.95V54.5182C281.614 53.7003 282.322 53.3731 282.759 53.264V52.01H275.725V53.264C276.215 53.3731 276.978 53.6458 276.978 54.5182V66.95C276.978 67.8224 276.215 68.095 275.725 68.2041V69.4581H282.759V68.2041Z" fill="#090909"/>
<path d="M280.634 40.1231C280.634 39.0872 279.816 38.2693 278.78 38.2693C277.744 38.2693 276.926 39.0872 276.926 40.1231C276.926 41.1592 277.744 41.9771 278.78 41.9771C279.816 41.9771 280.634 41.1592 280.634 40.1231Z" fill="#090909"/>
<path d="M144.427 44.2664C143.392 44.2664 142.574 45.0842 142.574 46.1202C142.574 47.1563 143.392 47.9741 144.427 47.9741C145.463 47.9741 146.282 47.1563 146.282 46.1202C146.282 45.0842 145.463 44.2664 144.427 44.2664Z" fill="#090909"/>
<path d="M223.71 68.4759C223.166 68.3668 222.403 67.9852 222.403 67.0037V54.5719C222.403 53.3177 223.983 53.2632 223.983 53.2632V52.0637H216.132V53.2632C216.132 53.2632 217.713 53.2632 217.713 54.5719V59.6972H211.006V54.5719C211.006 53.3177 212.587 53.2632 212.587 53.2632V52.0637H205.172V53.3177C205.662 53.4268 206.372 53.6995 206.372 54.5719V67.0037C206.372 67.8761 205.662 68.1487 205.172 68.2578V69.5118H212.151V68.2578C211.66 68.1487 211.006 67.8761 211.006 67.0582V61.9873H217.713V67.1128C217.713 67.9306 217.059 68.2578 216.567 68.3122V69.6209H223.656V68.5849L223.71 68.4759Z" fill="#090909"/>
<path d="M203.154 61.8789H196.666V63.133C197.156 63.2421 197.811 63.5147 197.811 64.3326V67.9312C197.374 68.0404 196.828 68.1493 196.284 68.1493C192.521 68.1493 190.122 64.8233 190.122 60.6793C190.122 56.5354 192.576 53.2094 196.284 53.2094C199.991 53.2094 200.482 55.2268 201.082 56.2082L202.063 55.9356L201.355 51.9552H200.155C199.228 52.1189 197.429 51.6282 195.793 51.6282C190.014 51.6282 185.324 55.663 185.324 60.6793C185.324 65.6957 190.014 69.7307 195.793 69.7307C201.573 69.7307 200.373 69.0217 202.118 67.8767V64.2235C202.118 63.4056 202.773 63.133 203.263 63.024V61.7698L203.154 61.8789Z" fill="#090909"/>
<path d="M137.45 31.8894V34.6702C137.45 37.342 138.104 38.8142 139.358 40.2863C140.722 41.8676 143.284 42.6855 145.901 42.6855C148.791 42.6855 155.88 43.2853 155.88 37.0148V34.8884H153.536C151.79 34.8884 150.918 33.9614 150.918 31.6713C150.918 29.3812 152.063 27.2002 154.408 27.2002H157.025V32.9254C157.025 37.0148 160.187 37.0694 161.442 37.0694H193.285V30.3082C193.285 28.7269 193.285 24.583 186.577 25.2373C181.943 25.6735 178.398 30.2537 177.581 31.7258V21.366V20.2209H171.311V21.4205C171.311 21.4205 172.892 21.4205 172.892 22.6746V34.8884H163.405C162.041 34.8884 161.387 34.1249 161.387 32.5983V25.2918H154.08C151.464 25.2918 146.393 27.3093 146.393 32.1075C146.393 36.9057 150.209 36.5241 151.626 36.5241C151.626 38.4325 150.918 40.7771 145.792 40.7771C140.667 40.7771 142.03 37.9418 142.03 34.5066V29.4358H135.76V30.6353C135.76 30.6353 137.232 30.6353 137.341 31.7804L137.45 31.8894ZM186.415 27.6364C188.649 27.6364 188.595 29.7629 188.595 30.8534V34.9428H177.635C178.017 33.7433 182.38 27.6364 186.468 27.6364H186.415Z" fill="#090909"/>
<path d="M183.635 52.0646H178.183V53.2642C178.183 53.2642 179.764 53.2642 179.764 54.5728V62.1519L167.059 51.4104V67.0047C167.059 67.8226 166.404 68.1498 165.914 68.2042V69.4583H171.313V68.2587C171.313 68.2587 169.731 68.2587 169.731 66.9501V59.6437L182.435 70.0036V54.5728C182.435 53.7549 183.144 53.4277 183.58 53.3188V52.0646H183.635Z" fill="#090909"/>
<path d="M241.264 67.4398L234.503 52.4999C234.394 52.2272 234.121 52.0637 233.795 52.0637C233.467 52.0637 233.194 52.2272 233.086 52.5544L226.543 67.0037C226.271 67.658 225.725 68.2578 225.016 68.4759V69.5664H229.705V68.3668H229.596C229.159 68.3668 228.56 67.8215 228.888 67.1672L229.705 65.2588H235.867L236.685 67.2217C236.957 67.8761 236.466 68.2578 235.921 68.3668V69.6209H242.792V68.4213C242.792 68.4213 241.81 68.5849 241.264 67.5489V67.4398ZM230.632 62.9688L232.759 57.9525L234.885 62.9688H230.632Z" fill="#090909"/>
<path d="M163.077 68.2041C162.587 68.095 161.933 67.8224 161.933 66.95V54.5182C161.933 53.7003 162.641 53.3731 163.077 53.2642V52.01H156.152V53.2642C156.643 53.3731 157.297 53.6458 157.297 54.4636V66.8955C157.297 67.7134 156.643 67.986 156.152 68.095V69.3492H163.077V68.095V68.2041Z" fill="#090909"/>
<path d="M148.516 59.7516C150.206 59.7516 152.497 58.8246 152.497 56.2618C152.497 53.6993 148.952 52.1179 145.572 52.1179H136.248V53.3721C136.739 53.481 137.393 53.7537 137.393 54.5715V67.0035C137.393 67.8213 136.739 68.094 136.248 68.2031V69.4571H145.572C149.935 69.4571 153.478 68.2575 153.478 64.5498C153.478 60.8421 151.515 60.624 148.516 59.7516ZM142.028 54.5715C142.028 53.5901 143.009 53.3721 143.445 53.3175C146.989 52.8814 148.244 54.7352 148.244 56.3164C148.244 57.8977 147.044 59.3153 143.009 59.3153H142.028V54.6261V54.5715ZM143.5 68.2575C143.118 68.2575 142.028 68.0394 142.028 67.0035V60.7875C147.262 60.7875 149.007 62.3143 149.007 64.3862C149.007 66.4582 147.208 68.6392 143.5 68.312V68.2575Z" fill="#090909"/>
<path d="M147.266 46.1202C147.266 47.1563 148.084 47.9741 149.12 47.9741C150.156 47.9741 150.973 47.1563 150.973 46.1202C150.973 45.0842 150.156 44.2664 149.12 44.2664C148.084 44.2664 147.266 45.0842 147.266 46.1202Z" fill="#090909"/>
</g>
</svg>
