<svg width="314" height="90" viewBox="0 0 314 90" fill="none" xmlns="http://www.w3.org/2000/svg">
<g clip-path="url(#clip0_685_496)">
<path d="M49.2502 27.2249C56.9954 27.2249 62.2679 28.8193 65.0676 31.9878C67.8674 35.1563 68.0717 39.5923 65.6807 45.316C64.0663 49.0773 61.6957 52.4503 58.6916 55.2304C55.4219 58.2967 51.5186 60.6066 47.2475 61.9762C42.0976 63.3663 36.7638 63.9795 31.43 63.816H7.64258L16.5118 42.7199H24.4001L18.1467 57.5403H26.505C31.1439 57.9083 35.8033 57.1724 40.0949 55.4144C43.9369 53.6155 45.5717 49.5679 47.3905 45.1525C50.5785 37.5481 47.9014 32.9486 38.6644 32.9486H20.5785L22.9491 27.2249H49.2298H49.2502Z" fill="#CEB274"/>
<path d="M307.417 27.2248L307.295 27.5519H307.499L302.921 38.5497H295.033L297.424 32.8259H287.063C278.725 32.458 271.062 37.4254 267.996 45.1729C266.157 49.5884 265.891 53.7381 268.242 55.537C270.367 57.1723 274.658 57.99 281.116 57.99H294.481L292.111 63.816H268.385C263.562 64.0817 258.718 63.4685 254.1 61.9762C251.178 60.8315 248.991 58.2966 248.296 55.2303C247.683 51.8779 248.133 48.4027 249.584 45.2955C251.913 39.674 256.041 34.9723 261.334 31.9674C267.404 28.6558 274.229 27 281.137 27.2044H307.397L307.417 27.2248Z" fill="#CEB274"/>
<path d="M237.895 27.2043H229.864V27.2452H220.116L182.636 62.3237L197.289 27.2657H181.246L161.832 42.4745L151.839 50.6718H151.389L156.09 38.7132L150.368 27.2657H134.244L119.591 62.385L111.151 27.2657H93.4535L54.4004 63.8773H64.1688L74.162 54.3309H98.7669L100.749 63.8773H126.887L136.328 41.248C136.86 39.9806 137.309 38.6723 137.718 37.3436C137.8 38.6519 138.127 39.9193 138.678 41.1049L146.975 59.9729H148.385L172.173 41.1662C173.583 39.9601 174.952 38.6927 176.219 37.3436C175.3 39.0403 174.666 40.3485 174.278 41.248L164.836 63.8773H200.293L210.184 54.2695H235.749L237.793 63.8773H246.785L237.956 27.2452L237.895 27.2043ZM79.2505 49.2408L94.8227 34.3386L97.6225 49.2408H79.2505ZM215.211 49.1795L231.192 33.6027L234.523 49.1795H215.211Z" fill="#CEB274"/>
</g>
<defs>
<clipPath id="clip0_685_496">
<rect width="300" height="37" fill="white" transform="translate(7.5 27)"/>
</clipPath>
</defs>
</svg>
