<svg width="314" height="90" viewBox="0 0 314 90" fill="none" xmlns="http://www.w3.org/2000/svg">
<mask id="mask0_683_354" style="mask-type:luminance" maskUnits="userSpaceOnUse" x="93" y="20" width="128" height="50">
<path d="M221 20H93V70H221V20Z" fill="white"/>
</mask>
<g mask="url(#mask0_683_354)">
<path d="M95.8715 50.7916C95.8669 51.1652 95.9323 51.5362 96.0642 51.8856C96.1298 52.0525 96.2333 52.2018 96.3666 52.3215C96.4999 52.4412 96.6591 52.5278 96.8317 52.5747H93C93.1727 52.5273 93.3322 52.4405 93.4659 52.321C93.5996 52.2014 93.7039 52.0524 93.7706 51.8856C93.901 51.5358 93.9663 51.1651 93.9632 50.7916V31.3022C93.9663 30.9288 93.901 30.558 93.7706 30.2083C93.7054 30.0389 93.6018 29.8872 93.4681 29.7649C93.3343 29.6427 93.1741 29.5535 93 29.5042H96.8317C96.6594 29.5514 96.5003 29.6383 96.3671 29.7578C96.2339 29.8775 96.1302 30.0265 96.0642 30.1932C95.9304 30.5473 95.865 30.9236 95.8715 31.3022V50.7916Z" fill="black"/>
<path d="M144.452 50.7916C144.652 51.7143 145.13 52.3086 145.884 52.5746H141.971C142.124 52.5366 142.263 52.4546 142.37 52.3386C142.477 52.2226 142.548 52.0778 142.573 51.9218C142.613 51.5832 142.586 51.2402 142.492 50.9124L137.676 32.8919L128.216 53.3029L118.804 33.055L114.012 50.9124C113.909 51.2487 113.879 51.6032 113.924 51.9521C113.954 52.1032 114.026 52.2426 114.133 52.3531C114.24 52.4636 114.377 52.5406 114.526 52.5746H112.148C112.509 52.4431 112.828 52.2189 113.075 51.9246C113.321 51.6302 113.487 51.276 113.554 50.8974L119.273 29.5041L129.022 50.4954L137.511 32.2089L138.769 29.489L138.946 30.172L144.452 50.7916Z" fill="black"/>
<path d="M218.635 29.5042H221.001C220.828 29.5518 220.67 29.6389 220.536 29.7584C220.403 29.8778 220.299 30.0268 220.233 30.1932C220.101 30.5425 220.036 30.9136 220.04 31.2872V52.5747L200.834 32.7438V50.7916C200.829 51.1652 200.894 51.5362 201.026 51.8856C201.092 52.0528 201.197 52.2022 201.33 52.3218C201.464 52.4415 201.624 52.528 201.797 52.5747H199.428C199.6 52.5273 199.76 52.4405 199.893 52.321C200.028 52.2014 200.132 52.0524 200.198 51.8856C200.329 51.5358 200.395 51.1651 200.392 50.7916V29.5042L219.595 49.3531V31.3022C219.599 30.929 219.535 30.5582 219.405 30.2083C219.34 30.0389 219.236 29.8872 219.103 29.7649C218.969 29.6427 218.809 29.5535 218.635 29.5042Z" fill="black"/>
<path d="M116.987 63.6002H116.91V63.6771V69.4282V69.5051H116.987H119.154C119.714 69.5162 120.268 69.3854 120.765 69.1245C121.222 68.8842 121.602 68.5186 121.861 68.0703L121.862 68.0688C122.117 67.6045 122.251 67.0828 122.251 66.5526C122.251 66.0224 122.117 65.5008 121.862 65.0364L121.861 65.0348C121.601 64.5866 121.222 64.2205 120.765 63.9779C120.268 63.718 119.714 63.5879 119.154 63.6002H116.987ZM119.141 69.1941H119.139H117.227V63.9082H119.139H119.141C119.651 63.8981 120.155 64.0155 120.609 64.2501C121.016 64.4627 121.354 64.7888 121.582 65.1893C121.811 65.607 121.931 66.0759 121.931 66.5526C121.931 67.0293 121.811 67.4982 121.582 67.9159C121.355 68.3164 121.016 68.6425 120.609 68.8552C120.155 69.0887 119.651 69.2052 119.141 69.1941Z" fill="black" stroke="black" stroke-width="0.15"/>
<path d="M127.013 69.2712H130.664V69.4284H126.854" fill="black"/>
<mask id="mask1_683_354" style="mask-type:luminance" maskUnits="userSpaceOnUse" x="126" y="68" width="6" height="3">
<path d="M131.48 68.502H126.854V70.0404H131.48V68.502Z" fill="white"/>
<path d="M127.013 69.2712H130.664V69.4284H126.854" fill="white"/>
</mask>
<g mask="url(#mask1_683_354)">
<path d="M130.664 69.2713H130.818V69.1174H130.664V69.2713ZM130.664 69.4284V69.5823H130.818V69.4284H130.664ZM127.013 69.4251H130.664V69.1174H127.013V69.4251ZM130.51 69.2713V69.4284H130.818V69.2713H130.51ZM130.664 69.2746H126.854V69.5823H130.664V69.2746Z" fill="black"/>
</g>
<path d="M127.012 66.4226H130.208V66.5798H126.867" fill="black"/>
<mask id="mask2_683_354" style="mask-type:luminance" maskUnits="userSpaceOnUse" x="126" y="65" width="5" height="3">
<path d="M130.723 65.6536H126.867V67.192H130.723V65.6536Z" fill="white"/>
<path d="M127.012 66.4229H130.208V66.58H126.867" fill="white"/>
</mask>
<g mask="url(#mask2_683_354)">
<path d="M130.208 66.4229H130.363V66.269H130.208V66.4229ZM130.208 66.58V66.7339H130.363V66.58H130.208ZM127.012 66.5767H130.208V66.269H127.012V66.5767ZM130.054 66.4229V66.58H130.363V66.4229H130.054ZM130.208 66.4262H126.867V66.7339H130.208V66.4262Z" fill="black"/>
</g>
<path d="M127.013 63.6763H130.55V63.8303H126.854" fill="black"/>
<mask id="mask3_683_354" style="mask-type:luminance" maskUnits="userSpaceOnUse" x="126" y="62" width="5" height="3">
<path d="M130.709 62.907H126.854V64.4454H130.709V62.907Z" fill="white"/>
<path d="M127.013 63.6763H130.55V63.8303H126.854" fill="white"/>
</mask>
<g mask="url(#mask3_683_354)">
<path d="M130.55 63.6763H130.704V63.5225H130.55V63.6763ZM130.55 63.8304V63.9842H130.704V63.8304H130.55ZM127.013 63.8302L130.55 63.8304V63.5225H127.013V63.8302ZM130.396 63.6763V63.8304H130.704V63.6763H130.396ZM130.55 63.6763L126.854 63.6765V63.9842H130.55V63.6763Z" fill="black"/>
</g>
<path d="M143.493 69.2712H147.144V69.4284H143.33" fill="black"/>
<mask id="mask4_683_354" style="mask-type:luminance" maskUnits="userSpaceOnUse" x="143" y="68" width="5" height="3">
<path d="M147.957 68.502H143.33V70.0404H147.957V68.502Z" fill="white"/>
<path d="M143.493 69.2712H147.144V69.4284H143.33" fill="white"/>
</mask>
<g mask="url(#mask4_683_354)">
<path d="M147.144 69.2713H147.298V69.1174H147.144V69.2713ZM147.144 69.4284V69.5823H147.298V69.4284H147.144ZM143.493 69.4251H147.144V69.1174H143.493V69.4251ZM146.989 69.2713V69.4284H147.298V69.2713H146.989ZM147.144 69.2746H143.33V69.5823H147.144V69.2746Z" fill="black"/>
</g>
<path d="M143.471 66.4226H146.671V66.5798H143.33" fill="black"/>
<mask id="mask5_683_354" style="mask-type:luminance" maskUnits="userSpaceOnUse" x="143" y="65" width="5" height="3">
<path d="M147.185 65.6536H143.33V67.192H147.185V65.6536Z" fill="white"/>
<path d="M143.471 66.4229H146.671V66.58H143.33" fill="white"/>
</mask>
<g mask="url(#mask5_683_354)">
<path d="M146.671 66.4229H146.825V66.269H146.671V66.4229ZM146.671 66.58V66.7339H146.825V66.58H146.671ZM143.471 66.5767H146.671V66.269H143.471V66.5767ZM146.517 66.4229V66.58H146.825V66.4229H146.517ZM146.671 66.4262H143.33V66.7339H146.671V66.4262Z" fill="black"/>
</g>
<path d="M143.49 63.6763H147.026V63.8303H143.33" fill="black"/>
<mask id="mask6_683_354" style="mask-type:luminance" maskUnits="userSpaceOnUse" x="143" y="62" width="5" height="3">
<path d="M147.185 62.907H143.33V64.4454H147.185V62.907Z" fill="white"/>
<path d="M143.49 63.6763H147.026V63.8303H143.33" fill="white"/>
</mask>
<g mask="url(#mask6_683_354)">
<path d="M147.026 63.6763H147.181V63.5225H147.026V63.6763ZM147.026 63.8304V63.9842H147.181V63.8304H147.026ZM143.49 63.8302L147.026 63.8304V63.5225H143.49V63.8302ZM146.872 63.6763V63.8304H147.181V63.6763H146.872ZM147.026 63.6763L143.33 63.6765V63.9842H147.026V63.6763Z" fill="black"/>
</g>
<path d="M93.1957 26.3176H96.8439V26.4657H93.0332" fill="black"/>
<mask id="mask7_683_354" style="mask-type:luminance" maskUnits="userSpaceOnUse" x="93" y="25" width="5" height="3">
<path d="M97.6597 25.5483H93.0332V27.0868H97.6597V25.5483Z" fill="white"/>
<path d="M93.1957 26.3176H96.8439V26.4657H93.0332" fill="white"/>
</mask>
<g mask="url(#mask7_683_354)">
<path d="M96.8439 26.3177H96.9981V26.1638H96.8439V26.3177ZM96.8439 26.4657V26.6196H96.9981V26.4657H96.8439ZM93.1957 26.4715H96.8439V26.1638H93.1957V26.4715ZM96.6896 26.3177V26.4657H96.9981V26.3177H96.6896ZM96.8439 26.3119H93.0332V26.6196H96.8439V26.3119Z" fill="black"/>
</g>
<path d="M93.1747 23.4749H96.3713V23.629H93.0332" fill="black"/>
<mask id="mask8_683_354" style="mask-type:luminance" maskUnits="userSpaceOnUse" x="93" y="22" width="4" height="3">
<path d="M96.8886 22.7058H93.0332V24.2443H96.8886V22.7058Z" fill="white"/>
<path d="M93.1747 23.4751H96.3713V23.6292H93.0332" fill="white"/>
</mask>
<g mask="url(#mask8_683_354)">
<path d="M96.3713 23.4751H96.5255V23.3213H96.3713V23.4751ZM96.3713 23.6293V23.7831H96.5255V23.6293H96.3713ZM93.1747 23.629L96.3713 23.6293V23.3213H93.1747V23.629ZM96.2171 23.4751V23.6293H96.5255V23.4751H96.2171ZM96.3713 23.4751L93.0332 23.4754V23.7831H96.3713V23.4751Z" fill="black"/>
</g>
<path d="M93.1897 20.7241H96.7295V20.8813H93.0332" fill="black"/>
<mask id="mask9_683_354" style="mask-type:luminance" maskUnits="userSpaceOnUse" x="93" y="19" width="4" height="3">
<path d="M96.8886 19.9548H93.0332V21.4933H96.8886V19.9548Z" fill="white"/>
<path d="M93.1897 20.7241H96.7295V20.8813H93.0332" fill="white"/>
</mask>
<g mask="url(#mask9_683_354)">
<path d="M96.7295 20.7242H96.8837V20.5703H96.7295V20.7242ZM96.7295 20.8813V21.0352H96.8837V20.8813H96.7295ZM93.1897 20.878H96.7295V20.5703H93.1897V20.878ZM96.5753 20.7242V20.8813H96.8837V20.7242H96.5753ZM96.7295 20.7275H93.0332V21.0352H96.7295V20.7275Z" fill="black"/>
</g>
<path d="M178.629 69.2712H182.28V69.4284H178.467" fill="black"/>
<mask id="mask10_683_354" style="mask-type:luminance" maskUnits="userSpaceOnUse" x="178" y="68" width="6" height="3">
<path d="M183.093 68.502H178.467V70.0404H183.093V68.502Z" fill="white"/>
<path d="M178.629 69.2712H182.28V69.4284H178.467" fill="white"/>
</mask>
<g mask="url(#mask10_683_354)">
<path d="M182.28 69.2713H182.434V69.1174H182.28V69.2713ZM182.28 69.4284V69.5823H182.434V69.4284H182.28ZM178.629 69.4251H182.28V69.1174H178.629V69.4251ZM182.126 69.2713V69.4284H182.434V69.2713H182.126ZM182.28 69.2746H178.467V69.5823H182.28V69.2746Z" fill="black"/>
</g>
<path d="M178.607 66.4226H181.795V66.5798H178.453" fill="black"/>
<mask id="mask11_683_354" style="mask-type:luminance" maskUnits="userSpaceOnUse" x="178" y="65" width="5" height="3">
<path d="M182.309 65.6536H178.453V67.192H182.309V65.6536Z" fill="white"/>
<path d="M178.607 66.4229H181.795V66.58H178.453" fill="white"/>
</mask>
<g mask="url(#mask11_683_354)">
<path d="M181.795 66.4229H181.949V66.269H181.795V66.4229ZM181.795 66.58V66.7339H181.949V66.58H181.795ZM178.607 66.5767H181.795V66.269H178.607V66.5767ZM181.641 66.4229V66.58H181.949V66.4229H181.641ZM181.795 66.4262H178.453V66.7339H181.795V66.4262Z" fill="black"/>
</g>
<path d="M178.626 63.6763H182.163V63.8303H178.467" fill="black"/>
<mask id="mask12_683_354" style="mask-type:luminance" maskUnits="userSpaceOnUse" x="178" y="62" width="5" height="3">
<path d="M182.322 62.907H178.467V64.4454H182.322V62.907Z" fill="white"/>
<path d="M178.626 63.6763H182.163V63.8303H178.467" fill="white"/>
</mask>
<g mask="url(#mask12_683_354)">
<path d="M182.163 63.6763H182.317V63.5225H182.163V63.6763ZM182.163 63.8304V63.9842H182.317V63.8304H182.163ZM178.626 63.8302L182.163 63.8304V63.5225H178.626V63.8302ZM182.008 63.6763V63.8304H182.317V63.6763H182.008ZM182.163 63.6763L178.467 63.6765V63.9842H182.163V63.6763Z" fill="black"/>
</g>
<path d="M139.725 63.7078L139.773 63.5994H139.654H139.48H139.43L139.409 63.645L137.009 69.0148L134.608 63.645L134.587 63.5994H134.537H134.336H134.217L134.265 63.7078L136.842 69.4497L136.862 69.4951H136.912H137.075H137.125L137.145 69.4497L139.725 63.7078Z" fill="black" stroke="black" stroke-width="0.15"/>
<path d="M152.394 63.5994H152.316V63.6763V69.4274V69.5043H152.394H155.969H156.046V69.4274V69.2701V69.1932H155.969H152.633V63.6763V63.5994H152.556H152.394Z" fill="black" stroke="black" stroke-width="0.15"/>
<path d="M160.923 69.1456L160.924 69.1462C161.396 69.4001 161.923 69.533 162.458 69.533C162.994 69.533 163.521 69.4001 163.992 69.1462L163.993 69.1457C164.445 68.8949 164.82 68.5255 165.079 68.0773L165.08 68.0764C165.34 67.6124 165.476 67.089 165.476 66.5565C165.476 66.0241 165.34 65.5007 165.08 65.0367L165.079 65.0361C164.821 64.5868 164.446 64.2172 163.993 63.9674C163.522 63.7114 162.994 63.5769 162.458 63.5769C161.923 63.5769 161.395 63.7111 160.924 63.9671L160.923 63.9674C160.472 64.2184 160.098 64.5878 159.841 65.036L159.84 65.0367C159.58 65.5007 159.443 66.0241 159.443 66.5565C159.443 67.089 159.58 67.6124 159.84 68.0764L159.841 68.0773C160.099 68.5247 160.473 68.8938 160.923 69.1456ZM165.155 66.5565C165.155 67.0339 165.033 67.5031 164.801 67.9194C164.571 68.3201 164.237 68.6503 163.834 68.8751C163.412 69.103 162.94 69.2222 162.46 69.2222C161.98 69.2222 161.508 69.1029 161.085 68.8751C160.682 68.6503 160.347 68.3201 160.116 67.9194C159.884 67.5031 159.762 67.0338 159.762 66.5565C159.762 66.0793 159.884 65.61 160.116 65.1937C160.346 64.7914 160.681 64.4601 161.085 64.2351C161.508 64.0072 161.98 63.8879 162.46 63.8879C162.94 63.8879 163.412 64.0072 163.834 64.2351C164.237 64.4601 164.572 64.7915 164.801 65.1936C165.033 65.6099 165.155 66.0793 165.155 66.5565Z" fill="black" stroke="black" stroke-width="0.15"/>
<path d="M173.72 64.1164L173.721 64.116L173.714 64.1104C173.223 63.7483 172.621 63.5708 172.013 63.6088H170.077H170V63.6857V69.4277V69.5046H170.077H170.24H170.317V69.4277V67.5311H172.013C172.622 67.5679 173.225 67.3867 173.714 67.0201L173.72 67.0145C173.918 66.8284 174.074 66.604 174.182 66.3548C174.29 66.1055 174.345 65.837 174.345 65.5655C174.345 65.294 174.29 65.0254 174.182 64.7763C174.074 64.527 173.918 64.3024 173.72 64.1164ZM170.317 67.2232V63.9077H172.03L172.036 63.9075C172.565 63.8722 173.089 64.0264 173.515 64.3425C173.676 64.5017 173.803 64.6912 173.891 64.9003C173.979 65.1109 174.024 65.337 174.024 65.5655C174.024 65.7939 173.979 66.02 173.891 66.2307C173.803 66.4397 173.676 66.6292 173.515 66.7883C173.089 67.1046 172.565 67.2587 172.036 67.2233L172.03 67.2232H170.317Z" fill="black" stroke="black" stroke-width="0.15"/>
<path d="M191.495 69.4734L191.517 69.5039L191.554 69.5055L191.762 69.5146L191.92 69.5214L191.828 69.3928L190.404 67.4144C190.784 67.3064 191.121 67.0851 191.374 66.7788L191.375 66.7768C191.64 66.4338 191.776 66.0093 191.761 65.5762C191.775 65.3023 191.726 65.029 191.617 64.7775C191.508 64.5251 191.342 64.3011 191.131 64.1236L191.128 64.1208C190.638 63.7554 190.037 63.5744 189.427 63.6098H187.491H187.414V63.6868V69.4287V69.5056H187.491H187.654H187.731V69.4287V67.5321H189.429C189.642 67.5353 189.856 67.5186 190.067 67.4822L191.495 69.4734ZM187.722 67.2363V63.9208H189.45L189.456 63.9207C189.983 63.8853 190.507 64.0394 190.933 64.3556C191.093 64.5148 191.221 64.7044 191.308 64.9132C191.396 65.1239 191.441 65.3501 191.441 65.5785C191.441 65.807 191.396 66.0332 191.308 66.2438C191.221 66.4527 191.093 66.6422 190.933 66.8015C190.507 67.1177 189.983 67.2718 189.456 67.2364L189.45 67.2363H187.722Z" fill="black" stroke="black" stroke-width="0.15"/>
<path d="M195.791 68.5841L195.738 68.6348L195.787 68.6903C196.024 68.9617 196.323 69.1704 196.659 69.2977C197.039 69.4536 197.447 69.5325 197.858 69.5297C198.241 69.5417 198.623 69.474 198.979 69.3308C199.259 69.2213 199.5 69.0305 199.671 68.7832L199.672 68.7821C199.821 68.5564 199.901 68.2904 199.898 68.0189C199.914 67.7174 199.818 67.4208 199.628 67.1862L199.627 67.1845C199.45 66.979 199.226 66.8209 198.972 66.7244L198.971 66.7241C198.645 66.604 198.311 66.5022 197.974 66.4194L197.972 66.4192C197.654 66.3453 197.341 66.2533 197.032 66.1437C196.815 66.0677 196.619 65.938 196.463 65.7668C196.311 65.5832 196.233 65.3491 196.243 65.1105H196.244V65.1058C196.241 64.9376 196.278 64.7711 196.351 64.6195C196.425 64.4684 196.531 64.337 196.664 64.2352C197.031 63.9781 197.476 63.8544 197.923 63.8843L197.927 63.8844C198.196 63.8856 198.462 63.9272 198.718 64.0078L198.719 64.008C198.978 64.0872 199.224 64.21 199.445 64.3712L199.509 64.418L199.554 64.353L199.644 64.2231L199.687 64.1614L199.626 64.1171C199.388 63.9435 199.123 63.8101 198.842 63.7222C198.544 63.6234 198.232 63.5732 197.917 63.5734C197.539 63.5621 197.163 63.6321 196.815 63.7788C196.542 63.8911 196.31 64.0834 196.147 64.3304L196.146 64.3318C196.004 64.5599 195.929 64.8241 195.93 65.0933C195.916 65.401 196.013 65.7037 196.206 65.9438L196.207 65.9457C196.384 66.1531 196.61 66.3134 196.865 66.4118L196.866 66.412C197.193 66.5354 197.53 66.6373 197.871 66.7171C198.186 66.7882 198.497 66.8782 198.802 66.9865C199.012 67.0641 199.202 67.1913 199.354 67.3576C199.506 67.5398 199.584 67.773 199.572 68.0105V68.0155C199.575 68.1828 199.538 68.3482 199.465 68.498C199.391 68.6473 199.284 68.7769 199.15 68.8761C198.768 69.1309 198.313 69.2514 197.855 69.2188L197.849 69.2187C197.482 69.2206 197.119 69.1487 196.78 69.0071L196.778 69.0061C196.486 68.8943 196.225 68.7138 196.017 68.48L195.964 68.4204L195.906 68.4752L195.791 68.5841Z" fill="black" stroke="black" stroke-width="0.15"/>
<path d="M180.455 52.5759H184.479C183.709 52.328 183.118 51.7357 182.703 50.7928L172.463 28.7771L167.448 39.593L162.229 50.7928C161.805 51.7539 161.215 52.3492 160.453 52.5759H162.837C162.5 52.4671 162.334 52.2736 162.334 52.0107C162.351 51.6939 162.436 51.3844 162.584 51.1041L165.76 44.2984H165.733L168.204 39.0249L171.665 31.5966L175.379 39.6051L177.58 44.2984H177.559L180.59 50.7928C180.775 51.1386 180.897 51.5139 180.954 51.9019C180.974 52.0574 180.934 52.2146 180.84 52.3403C180.747 52.4661 180.608 52.5505 180.455 52.5759Z" fill="black"/>
</g>
</svg>
