<svg width="314" height="90" viewBox="0 0 314 90" fill="none" xmlns="http://www.w3.org/2000/svg">
<g clip-path="url(#clip0_683_468)">
<path d="M108.244 27.6163H101.179C100.111 30.9277 94.1616 41.1701 89.7906 48.2578C85.2685 41.1753 79.1679 30.933 78.0477 27.6163H70.9832C71.7438 31.1836 71.7959 39.5405 71.7959 45.5052C71.7959 51.4699 71.7438 59.8268 70.9832 63.3941H77.8446C77.1309 59.9783 77.0319 44.8471 77.0319 37.0961C81.455 43.8756 85.727 51.0102 88.6706 56.3064H90.5512C93.3959 50.9529 97.7669 43.8182 102.19 36.9917C102.19 44.6852 102.091 59.9261 101.377 63.3889H108.239C107.478 59.8216 107.426 51.4648 107.426 45.5C107.426 39.5353 107.478 31.1784 108.239 27.6111M20 45.6567C20 56.2072 27.8251 64 38.3489 64C48.8728 64 57.0053 55.9984 57.0053 45.3485C57.0053 34.6988 49.1803 27.0052 38.6564 27.0052C28.1325 27.0052 20 35.0069 20 45.6567ZM25.8975 44.8941C25.8975 36.8924 30.727 31.5911 37.9947 31.5911C46.1793 31.5911 51.1078 38.2139 51.1078 46.1162C51.1078 54.0187 46.2783 59.4194 39.0106 59.4194C30.826 59.4194 25.8975 52.7966 25.8975 44.8941ZM124.004 63.3941H130.865C130.151 60.0305 130.052 46.3723 130.052 36.9447C137.523 45.8134 144.843 54.3739 150.386 63.3941H156.435C155.674 59.4716 155.57 51.5221 155.57 45.5052C155.57 39.4883 155.674 31.1836 156.435 27.6163H149.573C150.287 30.98 150.386 44.6382 150.386 54.0659C142.915 45.1501 135.595 36.4328 130.052 27.6163H124.004C124.764 31.1836 124.816 39.5405 124.816 45.5052C124.816 51.4699 124.764 59.8268 124.004 63.3941ZM172.194 63.3941H179.056C178.295 59.8268 178.243 51.5221 178.243 45.5575C178.243 39.5927 178.295 31.1889 179.056 27.6163H172.194C172.955 31.1836 173.007 39.5927 173.007 45.5575C173.007 51.5221 172.955 59.8268 172.194 63.3941ZM190.543 27.6163C193.492 31.1836 199.186 40.2038 204.881 50.1433V54.985C204.881 58.0406 204.829 61.0491 204.323 63.3941H211.132C210.623 61.0491 210.575 58.0458 210.575 54.985V50.1433C216.269 40.2038 221.912 31.1836 224.912 27.6163H217.54C216.728 31.2359 211.44 39.8487 208.137 45.0978C204.73 39.8487 199.29 31.2359 198.426 27.6163H190.548H190.543ZM226.226 63.3889H233.598C234.108 59.7694 240.563 46.3147 244.272 38.6735C248.034 46.3201 254.645 59.7694 255.151 63.3889H263.027C260.588 59.8216 251.946 42.5438 244.626 27C237.307 42.5438 229.07 59.8216 226.226 63.3889ZM265.111 33.5236C268.67 32.761 272.837 32.7088 277.411 32.7088C277.411 42.8989 277.36 59.8216 276.599 63.3889H283.512C282.751 59.8216 282.7 42.9042 282.7 32.7088C287.274 32.7088 291.441 32.761 295 33.5236V27.6163H265.111V33.5288V33.5236Z" fill="black"/>
</g>
<defs>
<clipPath id="clip0_683_468">
<rect width="275" height="37" fill="white" transform="translate(20 27)"/>
</clipPath>
</defs>
</svg>
