<svg width="314" height="90" viewBox="0 0 314 90" fill="none" xmlns="http://www.w3.org/2000/svg">
<g clip-path="url(#clip0_685_479)">
<path d="M153.144 60.8674H149.144V30.6544H151.769C156.469 30.6544 158.043 32.9344 158.043 36.3663C158.043 36.9376 158.424 42.5495 153.806 43.5711C154.98 43.8659 157.192 44.6001 158.953 46.2196C160.801 47.7472 161.667 50.1115 161.667 52.826C161.667 57.5858 159.043 60.8674 153.144 60.8674ZM157.393 43.4724C160.544 42.3206 162.718 40.0915 162.718 36.5586C162.718 31.097 157.719 28.751 151.369 28.751H144.145V62.7708H153.593C160.743 62.7708 166.942 59.882 166.942 53.3186C166.942 48.1331 163.068 44.5747 157.393 43.4724Z" fill="#111111"/>
<path d="M72.4296 61.6336C74.7539 62.8279 77.7114 63.3574 80.2525 63.3574C84.656 63.3574 92.4164 61.7782 92.4164 54.0625C92.4164 48.656 88.5036 45.6167 82.0601 41.2535C79.0781 39.1381 75.0167 37.0006 75.0167 33.5204C75.0167 30.6263 77.6955 28.894 81.4051 28.894C85.1288 28.894 88.0411 30.659 88.741 31.1217L86.9019 27.9254C85.6581 27.2253 82.9148 26.9998 81.4578 26.9998C76.5355 26.9998 70.786 29.0778 70.786 34.9335C70.786 39.564 74.4386 42.1798 80.4893 46.5137C83.2993 48.5099 87.7149 51.6704 87.7149 55.5541C87.7149 59.199 84.866 61.4632 80.2784 61.4632C74.9037 61.4632 70.9936 58.276 70.0566 57.4376L72.4296 61.6336Z" fill="#111111"/>
<path d="M127.94 45.761C127.94 36.5512 123.463 30.0615 116.771 30.0615C110.079 30.0615 105.602 36.5512 105.602 45.761C105.602 55.0211 110.079 61.4605 116.771 61.4605C123.463 61.4605 127.94 55.0211 127.94 45.761ZM116.771 63.3575C107.656 63.3575 100.582 56.0951 100.582 45.761C100.582 35.6774 107.656 28.1646 116.771 28.1646C125.886 28.1646 132.94 35.6774 132.94 45.761C132.94 56.0951 125.887 63.3575 116.771 63.3575Z" fill="#111111"/>
<path d="M223.216 50.8882H234.816L229.016 36.7331L223.216 50.8882ZM235.592 52.7851H222.441L218.341 62.7715H216.391L230.665 27.9951L244.942 62.7715H239.691L235.592 52.7851Z" fill="#111111"/>
<path d="M201.776 28.7595V42.7327H183.502V28.7595H178.502V62.772H183.502V44.6296H201.776V62.772H206.776V28.7595H201.776Z" fill="#111111"/>
</g>
<defs>
<clipPath id="clip0_685_479">
<rect width="176" height="37" fill="white" transform="translate(69.5 27)"/>
</clipPath>
</defs>
</svg>
